#!OML:ASF F:\VICON\USERDATA\INSTALL\rory3\rory3.ASF
:FULLY-SPECIFIED
:DEGREES
761
root -1.03655 28.4195 -3.51529 2.93922 11.0574 -356.829
lowerback 5.57686 -1.33856 -4.72283
upperback 1.50924 -2.01567 1.54444
thorax -1.34799 -1.00247 4.38071
lowerneck -14.3453 1.47628 -9.60228
upperneck 41.3175 6.29266 -0.960435
head 17.4672 0.971836 2.43621
rclavicle 2.20651e-014 -1.82882e-014
rhumerus -32.2612 -15.0792 -75.3967
rradius 33.1962
rwrist 21.756
rhand -20.3231 1.89484
rfingers 7.12502
rthumb 6.02792 -27.9994
lclavicle 2.20651e-014 -1.82882e-014
lhumerus -32.9014 11.1977 78.4663
lradius 34.1806
lwrist -2.06269
lhand -15.0258 27.7711
lfingers 7.12502
lthumb 11.1399 57.4554
rfemur -28.9643 1.02113 14.8631
rtibia 37.6415
rfoot 9.15964 -17.9643
rtoes 12.4341
lfemur -10.8169 4.57904 -27.2947
ltibia 35.8597
lfoot -23.3857 -7.19205
ltoes -5.38906
762
root -1.03049 28.3859 -3.45649 2.79316 11.2348 -356.821
lowerback 5.63051 -1.34336 -4.66756
upperback 1.54854 -2.02118 1.51324
thorax -1.33989 -1.00619 4.31832
lowerneck -14.3202 1.44544 -9.68625
upperneck 41.346 6.25247 -0.903735
head 17.4736 0.950216 2.46981
rclavicle -1.11319e-014 1.66979e-014
rhumerus -32.358 -15.0614 -75.3292
rradius 33.2167
rwrist 21.5479
rhand -20.2563 1.94938
rfingers 7.12502
rthumb 6.09238 -27.943
lclavicle -1.11319e-014 1.66979e-014
lhumerus -32.8418 10.9962 78.4756
lradius 34.2143
lwrist -2.11328
lhand -14.8735 27.8616
lfingers 7.12502
lthumb 11.2867 57.538
rfemur -28.5017 0.988645 14.9682
rtibia 36.287
rfoot 9.54556 -18.1155
rtoes 12.663
lfemur -10.8081 4.53024 -27.2771
ltibia 36.6243
lfoot -23.8811 -7.00394
ltoes -6.38108
763
root -1.02683 28.3475 -3.39845 2.74014 11.3717 -356.833
lowerback 5.55319 -1.36819 -4.65946
upperback 1.59187 -2.04968 1.51004
thorax -1.24929 -1.02387 4.30857
lowerneck -14.3182 1.429 -9.77242
upperneck 41.3188 6.23066 -0.847432
head 17.4526 0.938047 2.5059
rclavicle 6.95746e-015 7.95139e-015
rhumerus -32.4043 -14.937 -75.3218
rradius 33.2756
rwrist 21.2454
rhand -20.2717 2.26778
rfingers 7.12502
rthumb 6.07748 -27.625
lclavicle 6.95746e-015 7.95139e-015
lhumerus -32.7722 10.8243 78.5045
lradius 34.3007
lwrist -2.08037
lhand -14.6561 28.0161
lfingers 7.12502
lthumb 11.4964 57.6808
rfemur -28.1439 0.995202 15.108
rtibia 34.9942
rfoot 10.1781 -18.4174
rtoes 14.0129
lfemur -10.9258 4.48411 -27.2313
ltibia 37.4166
lfoot -24.3477 -6.76223
ltoes -7.04828
764
root -1.02212 28.3036 -3.34055 2.74547 11.5402 -356.723
lowerback 5.44932 -1.40366 -4.80497
upperback 1.61978 -2.09954 1.5212
thorax -1.15109 -1.05224 4.40107
lowerneck -14.3393 1.41807 -9.76051
upperneck 41.3614 6.27168 -0.96847
head 17.4914 0.936731 2.45775
rclavicle 3.80673e-014 -4.77083e-015
rhumerus -32.4597 -14.8284 -75.2415
rradius 33.3456
rwrist 20.9983
rhand -20.3247 2.36909
rfingers 7.12502
rthumb 6.02639 -27.5252
lclavicle 3.80673e-014 -4.77083e-015
lhumerus -32.6648 10.7926 78.5597
lradius 34.2777
lwrist -2.16165
lhand -14.6139 27.7724
lfingers 7.12502
lthumb 11.5371 57.4349
rfemur -27.8281 0.882758 15.1276
rtibia 33.7811
rfoot 10.6468 -18.8649
rtoes 15.1726
lfemur -11.0674 4.38299 -27.3115
ltibia 38.2501
lfoot -24.8851 -6.6809
ltoes -7.42758
765
root -1.01822 28.257 -3.28177 2.6609 11.7285 -356.645
lowerback 5.44725 -1.43046 -4.93339
upperback 1.66042 -2.14115 1.5324
thorax -1.09783 -1.07557 4.48665
lowerneck -14.3356 1.40836 -9.67237
upperneck 41.4268 6.29393 -1.10401
head 17.5406 0.936898 2.38634
rclavicle -2.90226e-014 -2.70347e-014
rhumerus -32.4979 -14.7891 -75.1532
rradius 33.4532
rwrist 21.0442
rhand -20.1879 1.9035
rfingers 7.12502
rthumb 6.1584 -27.987
lclavicle -2.90226e-014 -2.70347e-014
lhumerus -32.5388 10.7188 78.6188
lradius 34.3101
lwrist -2.37493
lhand -14.2935 28.0331
lfingers 7.12502
lthumb 11.8461 57.678
rfemur -27.4409 0.697632 15.217
rtibia 32.6373
rfoot 11.0757 -19.324
rtoes 15.0601
lfemur -11.1259 4.33311 -27.3377
ltibia 39.0991
lfoot -25.4459 -6.61381
ltoes -7.87137
766
root -1.01709 28.2088 -3.22117 2.59627 11.8749 -356.602
lowerback 5.41394 -1.42731 -4.99516
upperback 1.66252 -2.13884 1.51846
thorax -1.07547 -1.07515 4.50572
lowerneck -14.2674 1.39128 -9.6998
upperneck 41.4715 6.23107 -1.00353
head 17.5433 0.921226 2.42543
rclavicle 3.46879e-014 -1.66979e-014
rhumerus -32.6048 -14.8193 -75.0539
rradius 33.6146
rwrist 21.2584
rhand -19.8084 1.52092
rfingers 7.12502
rthumb 6.52482 -28.3586
lclavicle 3.46879e-014 -1.66979e-014
lhumerus -32.5314 10.4563 78.6804
lradius 34.4465
lwrist -2.47432
lhand -13.8404 28.3689
lfingers 7.12502
lthumb 12.283 57.9882
rfemur -27.0872 0.564492 15.3685
rtibia 31.5772
rfoot 11.1713 -19.8797
rtoes 14.9004
lfemur -11.2411 4.37439 -27.3164
ltibia 39.9221
lfoot -25.9854 -6.41959
ltoes -8.77586
767
root -1.01171 28.1633 -3.15763 2.55859 11.9933 -356.594
lowerback 5.30889 -1.43795 -4.96946
upperback 1.66821 -2.1467 1.50655
thorax -1.01156 -1.08104 4.4754
lowerneck -14.1648 1.38481 -9.7631
upperneck 41.4487 6.19516 -0.929864
head 17.4982 0.911872 2.46056
rclavicle 6.95746e-016 -7.95139e-016
rhumerus -32.7092 -14.8012 -74.986
rradius 33.7304
rwrist 21.3008
rhand -19.7736 1.55526
rfingers 7.12502
rthumb 6.55841 -28.3232
lclavicle 6.95746e-016 -7.95139e-016
lhumerus -32.5005 10.3043 78.719
lradius 34.4582
lwrist -2.52562
lhand -13.8677 28.1983
lfingers 7.12502
lthumb 12.2566 57.8191
rfemur -26.7186 0.381103 15.5535
rtibia 30.5497
rfoot 11.0254 -20.3904
rtoes 14.8984
lfemur -11.3615 4.42316 -27.2737
ltibia 40.7509
lfoot -26.539 -6.22403
ltoes -9.35012
768
root -1.00216 28.121 -3.09034 2.61364 12.0766 -356.521
lowerback 5.06835 -1.45798 -4.98635
upperback 1.68752 -2.16268 1.48278
thorax -0.855865 -1.09405 4.45215
lowerneck -14.2318 1.39031 -9.82281
upperneck 41.4932 6.21587 -0.871252
head 17.5344 0.915514 2.50433
rclavicle -9.93923e-015 1.11319e-014
rhumerus -32.7678 -14.7161 -74.9644
rradius 33.7494
rwrist 21.0214
rhand -20.1387 1.94096
rfingers 7.12502
rthumb 6.2059 -27.9481
lclavicle -9.93923e-015 1.11319e-014
lhumerus -32.4762 10.2179 78.7229
lradius 34.5019
lwrist -2.6092
lhand -13.9928 27.7987
lfingers 7.12502
lthumb 12.1361 57.4267
rfemur -26.4241 0.0437052 15.6961
rtibia 29.5762
rfoot 11.3277 -20.7527
rtoes 14.8202
lfemur -11.5194 4.52035 -27.3156
ltibia 41.5848
lfoot -27.0843 -6.14465
ltoes -9.73832
769
root -0.998214 28.0738 -3.02623 2.63264 12.0715 -356.505
lowerback 4.93845 -1.41953 -4.9595
upperback 1.66622 -2.10489 1.4396
thorax -0.814682 -1.06571 4.38526
lowerneck -14.2022 1.39094 -9.72491
upperneck 41.5313 6.18315 -0.864638
head 17.5517 0.917561 2.48512
rclavicle -1.77912e-014 -3.97569e-015
rhumerus -32.8939 -14.6501 -74.9703
rradius 33.7823
rwrist 20.736
rhand -20.3019 2.15614
rfingers 7.12502
rthumb 6.04837 -27.7375
lclavicle -1.77912e-014 -3.97569e-015
lhumerus -32.532 9.983 78.7079
lradius 34.6556
lwrist -2.62559
lhand -14.0892 27.7384
lfingers 7.12502
lthumb 12.0431 57.3719
rfemur -26.1415 -0.120379 15.9132
rtibia 28.6755
rfoot 11.6768 -21.3588
rtoes 15.2986
lfemur -11.6742 4.71944 -27.2641
ltibia 42.4224
lfoot -27.5788 -6.16164
ltoes -10.0544
770
root -0.999269 28.022 -2.96307 2.56429 11.9982 -356.495
lowerback 4.97783 -1.33846 -4.98125
upperback 1.59412 -2.00189 1.39213
thorax -0.9237 -1.0094 4.34604
lowerneck -14.0141 1.39385 -9.62174
upperneck 41.5609 6.12292 -0.84554
head 17.5231 0.915515 2.46134
rclavicle -1.0138e-014 1.74931e-014
rhumerus -33.1267 -14.483 -74.982
rradius 33.9356
rwrist 20.6325
rhand -20.1486 1.95203
rfingers 7.12502
rthumb 6.1964 -27.9374
lclavicle -1.0138e-014 1.74931e-014
lhumerus -32.7115 9.68186 78.6797
lradius 34.8218
lwrist -2.6602
lhand -14.1251 27.8725
lfingers 7.12502
lthumb 12.0084 57.508
rfemur -25.7745 -0.0461864 16.1152
rtibia 27.8567
rfoot 11.4479 -22.2427
rtoes 16.7466
lfemur -11.748 4.93241 -27.171
ltibia 43.28
lfoot -27.9418 -6.31599
ltoes -9.78779
771
root -1.00016 27.9676 -2.89695 2.53857 11.9274 -356.315
lowerback 4.88811 -1.25856 -5.20001
upperback 1.60205 -1.90196 1.3503
thorax -0.8704 -0.961444 4.41832
lowerneck -13.8995 1.37577 -9.70189
upperneck 41.5402 6.08827 -0.803286
head 17.4787 0.900055 2.48519
rclavicle 1.85864e-014 -1.27222e-014
rhumerus -33.1767 -14.4999 -74.9046
rradius 34.0567
rwrist 20.8883
rhand -20.0663 1.6715
rfingers 7.12502
rthumb 6.27582 -28.2155
lclavicle 1.85864e-014 -1.27222e-014
lhumerus -32.7531 9.52725 78.7375
lradius 34.94
lwrist -2.77685
lhand -14.0937 27.7993
lfingers 7.12502
lthumb 12.0388 57.4331
rfemur -25.3765 -0.0531784 16.1495
rtibia 27.0699
rfoot 10.8784 -23.1165
rtoes 18.7938
lfemur -11.8016 5.14099 -27.2506
ltibia 44.1922
lfoot -28.204 -6.65706
ltoes -8.66349
772
root -0.998909 27.9129 -2.83208 2.56898 11.8818 -356.157
lowerback 4.72081 -1.20219 -5.36806
upperback 1.63658 -1.82561 1.31572
thorax -0.745515 -0.928091 4.46805
lowerneck -13.851 1.3481 -9.72185
upperneck 41.5358 6.07513 -0.866995
head 17.4698 0.884881 2.45625
rclavicle 2.71341e-014 -2.94201e-014
rhumerus -33.1008 -14.4994 -74.8701
rradius 33.9809
rwrist 20.9288
rhand -20.3066 1.71778
rfingers 7.12502
rthumb 6.0438 -28.176
lclavicle 2.71341e-014 -2.94201e-014
lhumerus -32.7179 9.44862 78.7957
lradius 35.0749
lwrist -2.91126
lhand -13.9913 27.8164
lfingers 7.12502
lthumb 12.1375 57.4443
rfemur -25.0453 -0.316744 16.2612
rtibia 26.297
rfoot 10.6108 -23.6262
rtoes 20.2447
lfemur -11.9452 5.3073 -27.3292
ltibia 45.1502
lfoot -28.6785 -6.95713
ltoes -8.45539
773
root -0.998001 27.8586 -2.76928 2.63439 11.8143 -356.161
lowerback 4.51817 -1.12748 -5.34291
upperback 1.66195 -1.7136 1.31579
thorax -0.619984 -0.876413 4.44269
lowerneck -13.9295 1.32282 -9.71421
upperneck 41.601 6.04221 -0.834685
head 17.5279 0.872696 2.46816
rclavicle 1.64991e-014 1.59028e-014
rhumerus -33.0559 -14.503 -74.8268
rradius 33.9978
rwrist 20.7179
rhand -20.4084 1.68016
rfingers 7.12502
rthumb 5.94557 -28.2164
lclavicle 1.64991e-014 1.59028e-014
lhumerus -32.6803 9.26958 78.8988
lradius 35.2843
lwrist -2.86988
lhand -13.9544 27.8756
lfingers 7.12502
lthumb 12.173 57.5014
rfemur -24.7851 -0.537171 16.5446
rtibia 25.539
rfoot 10.9293 -23.7252
rtoes 19.6606
lfemur -12.23 5.4921 -27.2554
ltibia 46.1616
lfoot -29.2967 -7.06351
ltoes -9.52748
